<?xml version="1.0" standalone="no"?><!DOCTYPE svg PUBLIC "-//W3C//DTD SVG 1.1//EN" "http://www.w3.org/Graphics/SVG/1.1/DTD/svg11.dtd"><svg t="1602339397441" class="icon" viewBox="0 0 1024 1024" version="1.1" xmlns="http://www.w3.org/2000/svg" p-id="3173" xmlns:xlink="http://www.w3.org/1999/xlink" width="200" height="200"><defs><style type="text/css"></style></defs><path d="M259.9 759.7q0 26.43 17.28 44.72 17.28 18.3 39.64 18.3h42.7q-4.07 8.14-4.07 16.27v126.05q0 24.4 16.27 41.68 16.26 17.28 38.63 17.28 14.23 0 26.42-8.13 12.2-8.13 19.32-21.35 7.12-13.22 7.12-29.49V838.98q0-8.13-2.04-16.27h99.62q-2.03 8.14-2.03 16.27v126.05q0 24.4 16.26 41.68t38.63 17.28q14.24 0 26.44-8.13 12.19-8.13 19.31-21.35 7.12-13.22 7.12-29.49V838.97q0-8.13-2.03-16.27h40.66q16.27 0 29.49-8.13 13.22-8.13 20.33-23.38 7.12-15.25 7.12-31.51V322.56H259.92v437.12z m-50.84-418.82q-16.26-18.3-38.63-18.3-22.36 0-37.61 18.3t-15.25 42.7v254.13q0 24.4 15.25 41.68t37.61 17.28q22.36 0 38.63-17.28 16.27-17.28 16.27-41.68V383.58q0-24.4-16.27-42.7zM633.99 84.71l20.33-32.53 22.36-36.59q6.1-8.14-2.03-14.23-2.04-2.04-6.1-1.02-4.07 1.02-6.1 3.05l-24.4 40.66-20.33 32.53Q566.89 56.25 512 56.25q-56.93 0-107.75 20.33l-20.33-32.53-22.37-40.66q-2.03-2.03-6.1-3.05-4.06-1.02-6.1 1.02-8.13 6.09-4.06 14.23l22.36 36.59 20.33 32.53q-56.93 30.5-92.5 83.36-35.58 52.86-35.58 115.88h502.17q0-63.02-34.56-115.88-34.56-52.86-93.52-83.36zM404.25 204.66q-8.14 0-14.24-4.06-6.09-4.06-9.14-11.18-3.05-7.12-3.05-15.25 0-8.13 3.05-15.25 3.05-7.12 9.14-10.17 6.1-3.05 14.24-3.05 10.16 0 18.3 8.13 8.13 8.14 8.13 20.34t-8.13 21.34q-8.13 9.15-18.3 9.15z m233.8-9.15q-8.13 9.15-19.31 9.15-11.18 0-18.3-9.15-7.12-9.14-7.12-21.34t7.12-20.34q7.12-8.13 18.3-8.13t19.31 8.13q8.13 8.14 8.13 20.34t-8.13 21.34z m252.1 145.37q-16.26-18.3-38.63-18.3t-37.61 18.3q-15.25 18.3-15.25 42.7v254.13q0 24.4 15.25 41.68t37.61 17.28q22.37 0 38.63-17.28t16.26-41.68V383.58q0-24.4-16.26-42.7z" p-id="3174"></path></svg>