<?xml version="1.0" standalone="no"?><!DOCTYPE svg PUBLIC "-//W3C//DTD SVG 1.1//EN" "http://www.w3.org/Graphics/SVG/1.1/DTD/svg11.dtd"><svg t="1602339380020" class="icon" viewBox="0 0 1024 1024" version="1.1" xmlns="http://www.w3.org/2000/svg" p-id="2402" xmlns:xlink="http://www.w3.org/1999/xlink" width="200" height="200"><defs><style type="text/css"></style></defs><path d="M791.488 544.095c-1.28-129.695 105.76-191.871 110.528-194.975-60.16-88.032-153.856-100.064-187.232-101.472-79.744-8.064-155.584 46.944-196.064 46.944-40.352 0-102.816-45.76-168.96-44.544-86.912 1.28-167.072 50.528-211.808 128.384-90.304 156.703-23.136 388.831 64.896 515.935 43.008 62.208 94.304 132.064 161.632 129.568 64.832-2.592 89.376-41.952 167.744-41.952s100.416 41.952 169.056 40.672c69.76-1.312 113.984-63.392 156.704-125.792 49.376-72.16 69.728-142.048 70.912-145.632-1.536-0.704-136.064-52.224-137.408-207.136zM662.56 163.52C698.304 120.16 722.432 60 715.84 0c-51.488 2.112-113.888 34.304-150.816 77.536-33.152 38.368-62.144 99.616-54.368 158.432 57.472 4.48 116.128-29.216 151.904-72.448z" p-id="2403"></path></svg>